<svg version="1.1" xmlns="http://www.w3.org/2000/svg" viewBox="0 0 250 250"><desc>Created with Snap</desc><defs></defs><g transform="matrix(0.0385,0,0,0.0385,117.6964,116.5857)"><g transform="matrix(25.7871,0,0,25.7871,-2815.299,-1070.7311)"><g><path d="M96.684,49.795c-1.44-2.426-3.783-4.978-6.202-6.474c-2.903-1.797-6.167-2.917-9.552-3.338   c-1.848-0.231-7.883-1.699-8.882,0.717c-0.006,0.015-0.011,0.028-0.016,0.043c-0.466,1.227,1.037,2.143,1.602,3.007   c0.743,1.139,1.396,2.382,1.82,3.677c0.869,2.656,0.577,5.369-1.272,7.542c-1.307,1.532-6.805,4.819-5.876,7.179   c0.799,2.033,5.5,1.764,7.218,1.814c4.161,0.127,8.283-0.506,12.356-1.29c1.943-0.374,5.855-0.763,5.683-3.533   c-0.063-1.021-0.913-1.809-0.205-2.864c0.479-0.714,1.771-1.028,2.472-1.456C97.903,53.551,97.873,51.799,96.684,49.795z    M88.188,49.062c-0.68,1.48-1.823,2.416-3.521,2.823c-0.306-0.033-0.714-0.041-1.107-0.125c-0.938-0.196-1.497-1.229-1.181-2.124   c0.591-1.674,2.925-3.002,4.706-2.682C88.052,47.129,88.608,48.155,88.188,49.062z" fill="#e8715b" style=""></path><path d="M59.356,58.965c0.912-0.073,1.309-1.108,1.572-1.846c0.315-0.876,0.541-1.783,0.794-2.683   c0.459-1.638,1.368-2.668,3.232-2.531c0.576,0.043,1.179,0.021,1.739-0.103c0.418-0.091,1.118-0.384,0.969-0.913   c-0.235-0.817-1.288-1.125-1.987-1.368c-0.838-0.291-1.858-0.44-2.458-1.157c-0.509-0.611-0.488-1.419-0.41-2.174   c0.065-0.658,0.279-1.193,0.399-1.838c0.335-1.802-1.9-1.896-2.464-0.415c-0.412,1.089-0.741,2.21-1.092,3.322   c-0.281,0.897-0.92,1.368-1.821,1.34c-2.214-0.071-4.43-0.171-6.637-0.335c-1.195-0.089-1.638-0.646-1.625-1.824   c0.013-1.048,0.106-2.096,0.087-3.143c-0.014-0.75-0.354-1.352-1.174-1.521c-0.775-0.158-1.474,0.376-1.702,1.372   c-0.155,0.679-0.198,1.382-0.31,2.072c-0.092,0.574-0.104,1.197-0.352,1.701c-0.971,1.951-3.804,1.654-5.626,1.637   c-1.676-0.015-3.454,0.17-3.861-1.822c-0.185-0.912-0.355-1.828-0.67-2.705c-0.184-0.517-1.113-0.732-1.559-0.521   c-0.496,0.235-0.637,0.883-0.666,1.382c-0.035,0.563,0.066,1.128,0,1.689c-0.209,1.725-1.508,1.844-2.959,2.049   c-0.729,0.104-2.474-0.251-2.789,0.707c-0.791,2.404,5.824,0.045,6.33,2.536c0.197,0.979-0.253,3.152,1.047,3.649   c0.623,0.239,0.932-0.673,1.131-1.143c0.263-0.618,0.34-1.28,0.471-1.927c0.121-0.598,0.045-1.374,0.515-1.841   c0.493-0.495,1.311-0.349,1.939-0.357c1.429-0.015,2.868,0.024,4.296,0.124c1.331,0.095,1.837,0.689,1.899,2.033   c0.033,0.713-0.412,3.186,0.578,3.553c0.787,0.289,1.613-1.054,1.828-1.6c0.298-0.758,0.546-1.539,0.887-2.277   c0.368-0.802,1.04-1.299,1.935-1.265c1.266,0.047,2.536,0.098,3.801,0.161c1.019,0.051,2.248,0.041,3.167,0.545   c0.108,0.059,0.204,0.124,0.287,0.192c1.022,0.839,0.348,2.34,0.244,3.491C58.253,56.208,57.38,59.126,59.356,58.965z" fill="#e8715b" style=""></path><path d="M20.653,57.593c2.358-2.228,5.714-5.498,4.123-9.081c-1.526-3.441-6.522-4.292-9.697-5.369   c-1.227-0.413-13.148-4.208-12.558-0.737c0.252,1.466,3.75,1.712,4.902,2.219c5.242,2.303,6.844,7.719,4.409,12.785   c-0.999,2.077-3.427,4.445-2.804,6.938c0.012,0.03,0.019,0.061,0.027,0.094c0.65,2.33,3.023,1.469,4.542,0.257   C16.224,62.606,18.23,59.882,20.653,57.593z" fill="#e8715b" style=""></path><path d="M81.103,70.069c-1.045-0.811-2.556-0.624-3.368,0.425c-6.018,7.752-15.075,12.463-24.855,12.926   c-12.448,0.589-24.113-5.731-30.44-16.495c-0.673-1.143-2.143-1.524-3.288-0.853c-1.143,0.672-1.523,2.144-0.853,3.287   c7.233,12.307,20.572,19.532,34.808,18.858c11.184-0.528,21.543-5.916,28.422-14.779C82.342,72.391,82.15,70.884,81.103,70.069z" fill="#e8715b" style=""></path><path d="M16.411,40.383c0.3,0.106,0.609,0.149,0.91,0.135c0.946-0.045,1.817-0.654,2.151-1.604   c4.542-12.922,16.313-21.688,29.986-22.336c12.931-0.611,25.181,6.405,31.209,17.876c0.618,1.173,2.065,1.624,3.244,1.009   c1.172-0.617,1.623-2.069,1.007-3.243c-6.894-13.115-20.901-21.138-35.687-20.438c-15.635,0.74-29.097,10.766-34.29,25.539   C14.501,38.573,15.159,39.944,16.411,40.383z" fill="#e8715b" style=""></path></g><desc>Created with Snap</desc><defs></defs></g><g><g transform="matrix(1.024,0,0,-1.024,0,0)"><path d="M368 -13Q308 -13 246 40L238 0L94 0L230 636L378 656L258 95Q286 75 315 75Q372 75 415 141Q459 207 483 309Q507 411 507 515Q507 613 468 658Q430 704 361 704Q286 704 226 674Q167 645 133 590Q99 535 99 461Q99 424 106 409Q113 395 113 393Q61 393 33 415Q6 437 6 486Q6 554 57 615Q108 676 193 713Q279 750 378 750Q515 750 580 669Q645 588 645 462Q645 348 606 237Q568 127 504 57Q440 -13 368 -13ZM806 -6Q732 -6 691 32Q650 71 650 153Q650 222 677 305Q704 388 765 448Q826 509 920 509Q1030 509 1030 413Q1030 357 998 310Q966 263 913 234Q860 206 800 202Q798 172 798 162Q798 113 815 95Q832 78 870 78Q924 78 962 103Q1001 128 1047 179L1081 179Q970 -6 806 -6ZM808 250Q845 252 878 276Q912 300 932 337Q953 374 953 415Q953 456 928 456Q892 456 857 393Q823 330 808 250ZM1161 -6Q1113 -6 1080 12Q1047 31 1031 60Q1015 90 1015 122Q1015 155 1030 179Q1046 204 1068 215Q1107 285 1136 356Q1165 428 1191 511L1339 531Q1344 403 1356 254Q1361 194 1361 167Q1361 144 1357 129Q1404 156 1429 179L1471 179Q1407 105 1318 54Q1289 23 1246 8Q1204 -6 1161 -6ZM1129 73Q1166 73 1191 95Q1216 117 1216 166Q1216 196 1210 250Q1200 364 1197 403Q1173 324 1116 214Q1139 202 1139 179Q1139 160 1126 145Q1114 130 1095 130Q1074 130 1068 143Q1068 107 1082 90Q1097 73 1129 73ZM1596 554Q1563 554 1540 577Q1517 600 1517 633Q1517 666 1540 689Q1563 713 1596 713Q1629 713 1652 689Q1676 666 1676 633Q1676 600 1652 577Q1629 554 1596 554ZM1528 -6Q1480 -6 1450 24Q1421 54 1421 114Q1421 139 1429 179L1497 500L1641 500L1569 160Q1565 145 1565 128Q1565 108 1574 99Q1584 91 1606 91Q1635 91 1660 115Q1685 140 1696 179L1738 179Q1701 71 1643 32Q1585 -6 1528 -6Z" fill="#e8715b" style=""></path></g></g><g transform="matrix(1,0,0,1,-3.072,1088.5121)"><g transform="matrix(1.024,0,0,-1.024,0,0)"><path d="M218 -114Q181 -114 153 -108Q125 -102 104 -79Q84 -56 84 -8Q84 59 124 172Q165 285 231 399Q181 396 152 384Q123 372 114 347Q118 347 122 337Q127 327 127 316Q127 298 111 287Q95 277 71 277Q43 277 26 292Q9 307 9 335Q9 369 35 397Q62 425 109 441Q156 458 213 458Q234 458 265 455Q347 585 438 667Q530 750 613 750Q661 750 692 736L535 0L391 0L468 363Q431 380 400 388Q369 396 334 399Q277 276 240 147Q204 19 204 -58Q204 -96 218 -114ZM477 407L535 679Q492 656 445 593Q399 531 355 442Q427 428 477 407ZM788 -6Q731 -6 693 33Q655 72 655 155Q655 229 684 310Q714 392 772 448Q831 505 912 505Q953 505 973 491Q993 477 993 454L993 450L1042 680L1190 700L1075 160Q1071 145 1071 128Q1071 108 1080 99Q1090 91 1112 91Q1140 91 1160 115Q1181 139 1193 179L1235 179Q1174 0 1034 0Q993 0 967 22Q942 44 936 86Q910 46 873 20Q837 -6 788 -6ZM853 91Q877 91 901 113Q926 135 935 174L935 179L984 408Q975 443 943 443Q903 443 871 396Q839 350 821 284Q803 219 803 169Q803 119 817 105Q832 91 853 91ZM1313 -6Q1256 -6 1218 33Q1180 72 1180 155Q1180 229 1209 310Q1239 392 1297 448Q1356 505 1437 505Q1478 505 1498 491Q1518 477 1518 454L1518 450L1567 680L1715 700L1600 160Q1596 145 1596 128Q1596 108 1605 99Q1615 91 1637 91Q1665 91 1685 115Q1706 139 1718 179L1760 179Q1699 0 1559 0Q1518 0 1492 22Q1467 44 1461 86Q1435 46 1398 20Q1362 -6 1313 -6ZM1378 91Q1402 91 1426 113Q1451 135 1460 174L1460 179L1509 408Q1500 443 1468 443Q1428 443 1396 396Q1364 350 1346 284Q1328 219 1328 169Q1328 119 1342 105Q1357 91 1378 91ZM1885 554Q1852 554 1829 577Q1806 600 1806 633Q1806 666 1829 689Q1852 713 1885 713Q1918 713 1941 689Q1965 666 1965 633Q1965 600 1941 577Q1918 554 1885 554ZM1817 -6Q1769 -6 1739 24Q1710 54 1710 114Q1710 139 1718 179L1786 500L1930 500L1858 160Q1854 145 1854 128Q1854 108 1863 99Q1873 91 1895 91Q1924 91 1949 115Q1974 140 1985 179L2027 179Q1990 71 1932 32Q1874 -6 1817 -6ZM2128 -6Q2054 -6 2013 32Q1972 71 1972 153Q1972 222 1999 305Q2027 388 2087 448Q2148 509 2241 509Q2301 509 2326 483Q2352 457 2352 417Q2352 382 2337 363Q2322 344 2299 344Q2282 344 2264 356Q2276 389 2276 415Q2276 434 2269 445Q2262 456 2248 456Q2218 456 2188 407Q2158 358 2139 288Q2120 218 2120 162Q2120 113 2137 95Q2154 78 2192 78Q2246 78 2284 103Q2323 128 2369 179L2403 179Q2292 -6 2128 -6ZM2468 -6Q2420 -6 2390 24Q2361 54 2361 114Q2361 139 2369 179L2429 460L2396 460L2404 500L2437 500L2467 638L2615 658L2581 500L2641 500L2633 460L2573 460L2509 160Q2505 145 2505 128Q2505 108 2514 99Q2524 91 2546 91Q2575 91 2600 115Q2625 140 2636 179L2678 179Q2641 71 2583 32Q2525 -6 2468 -6ZM2750 -6Q2702 -6 2669 12Q2636 31 2620 60Q2604 90 2604 122Q2604 155 2619 179Q2635 204 2657 215Q2696 285 2725 356Q2754 428 2780 511L2928 531Q2933 403 2945 254Q2950 194 2950 167Q2950 144 2946 129Q2993 156 3018 179L3060 179Q2996 105 2907 54Q2878 23 2835 8Q2793 -6 2750 -6ZM2718 73Q2755 73 2780 95Q2805 117 2805 166Q2805 196 2799 250Q2789 364 2786 403Q2762 324 2705 214Q2728 202 2728 179Q2728 160 2715 145Q2703 130 2684 130Q2663 130 2657 143Q2657 107 2671 90Q2686 73 2718 73Z" fill="#e8715b" style=""></path></g></g></g></svg>